<svg width="120" height="20" viewBox="0 0 120 20" fill="none" xmlns="http://www.w3.org/2000/svg">
<path d="M12.1158 1.06217H2.64719C1.28935 1.06217 0.17749 2.06209 0.17749 3.27843V11.7751C0.17749 12.9929 1.28935 13.9906 2.64719 13.9906H5.02685C6.0015 13.9906 6.86952 17.103 7.33969 17.103C7.79075 17.103 8.67787 13.9906 9.65252 13.9906H12.1158C13.4735 13.9906 14.5855 12.9929 14.5855 11.7751V3.27843C14.5855 2.06209 13.4735 1.06217 12.1158 1.06217Z" fill="#C72014"/>
<path d="M19.2114 11.1375V3.8672H20.8308L23.1738 6.90616L25.5168 3.8672H27.1362V11.1375H25.677V5.76184L23.1738 8.97657L20.6706 5.76184V11.1375H19.2114Z" fill="#1E1E1E"/>
<path d="M31.2713 8.20483H33.6914L32.4873 5.35202L31.2713 8.20483ZM28.4656 11.1375L31.6865 3.8672H33.288L36.5089 11.1375H34.9431L34.2014 9.38106H30.773L30.0315 11.1375H28.4656Z" fill="#1E1E1E"/>
<path d="M39.3445 7.56081H40.8036C41.4441 7.56081 41.8811 7.45495 42.1146 7.24264C42.3478 7.03081 42.4645 6.71809 42.4645 6.30485C42.4645 5.89491 42.3467 5.58586 42.1115 5.37733C41.8763 5.16893 41.4404 5.06474 40.8036 5.06474H39.3445V7.56081ZM37.885 11.1375V3.8672H40.9163C41.8753 3.8672 42.616 4.07845 43.1391 4.50068C43.6621 4.92304 43.9236 5.52446 43.9236 6.30485C43.9236 7.0851 43.6621 7.68558 43.1387 8.10642C42.6154 8.52687 41.874 8.73719 40.9146 8.73719H39.3445V11.1375H37.885Z" fill="#1E1E1E"/>
<path d="M46.871 7.56081H48.3305C48.9709 7.56081 49.4079 7.45495 49.6411 7.24264C49.8746 7.03081 49.991 6.7181 49.991 6.30485C49.991 5.89491 49.8736 5.58586 49.6384 5.37733C49.4029 5.16893 48.9669 5.06474 48.3305 5.06474H46.871V7.56081ZM45.4119 11.1375V3.8672H48.4432C49.4018 3.8672 50.1429 4.07845 50.6656 4.50068C51.189 4.92304 51.4505 5.52446 51.4505 6.30485C51.4505 7.0851 51.1886 7.68558 50.6653 8.10642C50.1419 8.52687 49.4005 8.73719 48.4411 8.73719H46.871V11.1375H45.4119Z" fill="#1E1E1E"/>
<path d="M52.9519 11.1375V3.8672H54.411V11.1375H52.9519Z" fill="#1E1E1E"/>
<path d="M56.4641 11.1375V3.8672H58.119L62.2831 9.25334V3.8672H63.7425V11.1375H62.1113L57.9232 5.70861V11.1375H56.4641Z" fill="#1E1E1E"/>
<path d="M65.4917 7.50773C65.4917 6.91176 65.569 6.38828 65.7232 5.93776C65.8774 5.48701 66.0758 5.12781 66.3191 4.85991C66.5624 4.59204 66.856 4.37382 67.2002 4.20526C67.5441 4.03673 67.8802 3.92412 68.2085 3.86735C68.5365 3.81058 68.8905 3.78209 69.2701 3.78209C70.1576 3.78209 71.0781 3.94683 72.0311 4.27623V5.4772C71.1251 5.13136 70.2524 4.95831 69.4125 4.95831C69.1277 4.95831 68.8766 4.9743 68.6593 5.00609C68.4417 5.03792 68.2223 5.10677 68.001 5.21284C67.7793 5.31881 67.5953 5.46194 67.4492 5.64218C67.3028 5.82231 67.1833 6.06975 67.0902 6.38413C66.9974 6.69863 66.9508 7.06954 66.9508 7.49722C66.9508 7.93175 66.9974 8.30611 67.0902 8.62071C67.1833 8.93545 67.3028 9.18265 67.4492 9.36301C67.5953 9.54338 67.7793 9.68615 68.001 9.79224C68.2223 9.8981 68.4427 9.9674 68.6624 9.99898C68.8817 10.0309 69.1317 10.0465 69.4125 10.0465C69.8593 10.0465 70.3378 9.98515 70.848 9.86143V8.13059H69.0568V6.9755H72.3071V10.5998C71.3501 11.0152 70.3671 11.2228 69.3578 11.2228H69.3339C68.9475 11.2228 68.5878 11.1944 68.2544 11.1376C67.9203 11.0808 67.5788 10.9682 67.2289 10.7997C66.8786 10.6312 66.5806 10.4147 66.333 10.1504C66.0859 9.88601 65.8838 9.5267 65.7269 9.07252C65.57 8.61835 65.4917 8.09677 65.4917 7.50773Z" fill="#1E1E1E"/>
<path d="M74.3889 11.1375V3.8672H75.3382L78.1201 7.56081L80.9138 3.8672H81.863V11.1375H80.985V5.15509L78.1201 8.8596L75.267 5.15509V11.1375H74.3889Z" fill="#1E1E1E"/>
<path d="M85.3665 8.11966H88.2078L86.7902 4.79329L85.3665 8.11966ZM83.1184 11.1375L86.3512 3.8672H87.2231L90.4441 11.1375H89.507L88.5341 8.8596H85.0405L84.0677 11.1375H83.1184Z" fill="#1E1E1E"/>
<path d="M91.8901 5.79406C91.8901 5.2333 92.1166 4.75608 92.5698 4.36222C93.0229 3.96848 93.7285 3.77155 94.6866 3.77155C95.3746 3.77155 96.0509 3.91525 96.7146 4.20253V5.01154C96.1136 4.70652 95.4654 4.55394 94.7696 4.55394C94.122 4.55394 93.6266 4.66025 93.2828 4.87317C92.9396 5.08618 92.7678 5.39299 92.7678 5.79406C92.7678 6.04243 92.8792 6.24987 93.1022 6.41665C93.3253 6.58342 93.601 6.70677 93.9287 6.78662C94.2563 6.86646 94.615 6.96853 95.0051 7.09258C95.3945 7.21678 95.7529 7.35161 96.0799 7.49722C96.4059 7.64259 96.6812 7.86801 96.9049 8.17304C97.1287 8.47819 97.2404 8.84898 97.2404 9.28541C97.2404 9.88862 96.987 10.3623 96.4804 10.7066C95.9736 11.0507 95.267 11.2228 94.3609 11.2228C93.4782 11.2228 92.6781 11.0525 91.9613 10.7118V9.86025C92.6032 10.247 93.381 10.4405 94.2955 10.4405C95.6696 10.4405 96.3586 10.0554 96.3623 9.28541C96.3623 8.95898 96.2506 8.68493 96.0279 8.46317C95.8049 8.24141 95.5295 8.07903 95.2018 7.97611L94.1298 7.65676C93.7431 7.54322 93.385 7.42792 93.056 7.31083C92.7267 7.19371 92.4503 7.00662 92.2262 6.74938C92.0022 6.4921 91.8901 6.17372 91.8901 5.79406Z" fill="#1E1E1E"/>
<path d="M98.4521 4.62818V3.8672H105.042V4.62818H102.189V11.1375H101.311V4.62818H98.4521Z" fill="#1E1E1E"/>
<path d="M106.349 11.1375V3.8672H111.462V4.6069H107.227V7.11904H110.952V7.88015H107.227V10.3977H111.462V11.1375H106.349Z" fill="#1E1E1E"/>
<path d="M114.418 7.46501H116.47C116.874 7.46501 117.211 7.42337 117.482 7.33999C117.753 7.2566 117.949 7.14036 118.072 6.99133C118.195 6.8423 118.278 6.69502 118.321 6.54957C118.365 6.40408 118.386 6.23294 118.386 6.03601C118.386 5.83908 118.365 5.66783 118.321 5.52234C118.278 5.37685 118.195 5.22961 118.072 5.08057C117.949 4.93154 117.753 4.8154 117.482 4.73201C117.211 4.64865 116.874 4.6069 116.47 4.6069H114.418V7.46501ZM113.54 11.1375V3.8672H116.518C117.4 3.8672 118.078 4.0472 118.552 4.40736C119.027 4.7675 119.264 5.29183 119.264 5.98006C119.264 6.29232 119.209 6.57618 119.098 6.83164C118.987 7.08713 118.862 7.28582 118.721 7.42776C118.581 7.56968 118.414 7.69303 118.22 7.79771C118.027 7.90238 117.868 7.97159 117.746 8.00529C117.623 8.03899 117.508 8.06643 117.402 8.08774L119.626 11.1375H118.594L116.482 8.20483H114.418V11.1375H113.54Z" fill="#1E1E1E"/>
<path d="M11.3442 18.1863C11.3442 18.3743 9.57076 18.5284 7.38103 18.5284C5.19211 18.5284 3.41748 18.3743 3.41748 18.1863C3.41748 17.9989 5.19211 17.846 7.38103 17.846C9.57076 17.846 11.3442 17.9989 11.3442 18.1863Z" fill="#1E1E1E"/>
<path d="M3.58472 11.1121V4.14553H5.13698L7.38219 7.05865L9.62662 4.14553H11.1786V11.1121H9.77965V5.96118L7.38219 9.04307L4.98381 5.96118V11.1121H3.58472Z" fill="white"/>
</svg>
